<?xml version="1.0" encoding="iso-8859-1"?>
<!-- Generator: Adobe Illustrator 19.0.0, SVG Export Plug-In . SVG Version: 6.00 Build 0)  -->
<svg version="1.1" id="Layer_1" xmlns="http://www.w3.org/2000/svg" xmlns:xlink="http://www.w3.org/1999/xlink" x="0px" y="0px"
	 viewBox="0 0 512.213 512.213" style="enable-background:new 0 0 512.213 512.213;" xml:space="preserve">
<g transform="translate(1 1)">
	<polygon style="fill:#63D3FD;" points="7.814,502.68 50.48,502.68 50.48,297.88 7.814,297.88 	"/>
	<path style="fill:#FFA800;" d="M496.774,342.253c6.827-5.12,7.68-15.36,2.56-22.187c-11.093-14.507-19.627-18.773-56.32,0.853
		l-74.24,45.227c-23.04,11.947-81.92,8.533-107.52,8.533c0,0,60.587,4.267,36.693-31.573c-11.947-17.92-32.427-28.16-54.613-28.16
		h-33.28c-19.627,0-38.4-5.973-53.76-17.067C119.6,269.72,50.48,323.48,50.48,323.48v153.6h119.467
		c17.067,0,34.133-1.707,51.2-4.267l110.933-17.067c3.413,0,7.68-0.853,11.093-0.853l0,0c9.387-0.853,17.067-5.973,23.893-11.947
		L496.774,342.253z"/>
	<path style="fill:#FFE100;" d="M463.494,342.253c5.973-5.12,7.68-15.36,2.56-22.187c-10.24-15.36-14.507-7.68-48.64,11.947
		l-72.533,34.133c-21.333,11.947-75.947,8.533-99.84,8.533c0,0,75.093,1.707,52.053-34.133c-11.093-17.92-49.493-25.6-69.12-25.6
		h-30.72c-17.92,0-35.84-5.973-50.347-17.067c-32.427-28.16-96.427,25.6-96.427,25.6v153.6h110.08
		c15.36,0,31.573-1.707,46.933-4.267l103.253-17.067c3.413,0,6.827-0.853,10.24-0.853l0,0c8.533-0.853,16.213-5.973,22.187-11.947
		L463.494,342.253z"/>
	<path style="fill:#FFA800;" d="M118.747,291.053c13.653-2.56,27.307-1.707,37.547,6.827c15.36,11.947,34.987,17.067,53.76,17.067
		h33.28c21.333,0,41.813,10.24,54.613,28.16c17.92,27.307-11.947,31.573-27.307,31.573l0,0h50.347
		c19.627-0.853,38.4-2.56,48.64-8.533l48.64-29.867V161.347h42.667L306.48,23.107c-22.187-19.627-56.32-19.627-78.507,0
		L75.227,161.347h43.52V291.053z"/>
	<path style="fill:#FFE100;" d="M123.014,291.053c12.8-2.56,24.747-1.707,34.133,6.827c14.507,11.947,31.573,17.067,49.493,17.067
		h30.72c19.627,0,49.493,7.68,60.587,25.6c17.067,27.307-22.187,34.133-36.693,34.133l0,0h46.08
		c17.92-0.853,34.987-2.56,44.373-8.533l44.373-29.867V161.347h38.4L294.534,23.107c-20.48-19.627-51.2-19.627-71.68,0
		L83.76,161.347h40.107v129.707H123.014z"/>
	<g>
		<path style="fill:#63D3FD;" d="M246.747,144.28c0-14.507-11.093-25.6-25.6-25.6c-14.507,0-25.6,11.093-25.6,25.6
			s11.093,25.6,25.6,25.6C235.654,169.88,246.747,158.787,246.747,144.28"/>
		<path style="fill:#63D3FD;" d="M349.147,246.68c0-14.507-11.093-25.6-25.6-25.6c-14.507,0-25.6,11.093-25.6,25.6
			s11.093,25.6,25.6,25.6C338.054,272.28,349.147,261.187,349.147,246.68"/>
	</g>
	<path d="M169.947,485.613h-128v-166.4l3.413-2.56c3.413-2.56,75.093-57.173,116.053-26.453c13.653,10.24,30.72,15.36,48.64,15.36
		h33.28c24.747,0,47.787,11.947,61.44,31.573c7.68,11.093,9.387,20.48,5.12,28.16c21.333,0,44.373-1.707,54.613-7.68l73.387-45.227
		c37.547-19.627,52.907-19.627,68.267,0.853c7.68,10.24,5.973,25.6-4.267,34.133l0,0l-128.853,102.4
		c-8.533,7.68-17.92,12.8-28.16,14.507c-3.413,0.853-7.68,1.707-11.947,1.707L222,483.053
		C204.934,483.907,187.014,485.613,169.947,485.613z M59.014,468.547h110.933c16.213,0,33.28-0.853,49.493-3.413l112.64-17.067
		c3.413,0,5.973,0,9.387-0.853c7.68-0.853,14.507-4.267,19.627-10.24l0.853-0.853l129.707-100.693
		c3.413-2.56,3.413-7.68,1.707-10.24c-6.827-10.24-10.24-14.507-46.08,3.413l-73.387,45.227
		c-19.627,10.24-57.173,11.093-97.28,10.24c-1.707,0-3.413,0-4.267,0c-5.12,0-8.533,0-11.093,0L262.107,367c2.56,0,5.973,0,9.387,0
		c11.093-0.853,21.333-2.56,23.893-6.827c0.853-1.707,0-6.827-3.413-11.947c-11.947-16.213-29.013-24.747-48.64-24.747h-33.28
		c-22.187,0-42.667-6.827-58.88-18.773c-23.893-18.773-71.68,8.533-92.16,23.04V468.547z M496.774,342.253L496.774,342.253
		L496.774,342.253z"/>
	<path d="M59.014,511.213H-0.72V289.347h59.733V511.213z M16.347,494.147h25.6V306.413h-25.6V494.147z"/>
	<path d="M144.347,408.813c-5.12,0-8.533-3.413-8.533-8.533c0-21.333,16.213-34.133,42.667-34.133h82.773
		c5.12,0,8.533,3.413,8.533,8.533s-3.413,8.533-8.533,8.533H178.48c-25.6,0-25.6,12.8-25.6,17.067
		C152.88,405.4,149.467,408.813,144.347,408.813z"/>
	<path d="M269.787,383.213c-4.267,0-8.533-3.413-8.533-8.533c0-4.267,3.413-8.533,8.533-8.533
		c14.507-0.853,23.04-3.413,24.747-6.827c0.853-1.707,0-6.827-4.267-11.947c-9.387-15.36-27.307-23.893-46.933-23.893h-33.28
		c-22.187,0-42.667-6.827-58.88-18.773c-7.68-5.973-17.92-6.827-30.72-5.12c-2.56,0.853-5.12,0-6.827-1.707
		c-1.707-1.707-3.413-4.267-3.413-6.827V169.88H75.227c-3.413,0-6.827-2.56-7.68-5.12c-0.853-3.413,0-6.827,2.56-9.387
		L222.854,16.28c25.6-23.04,64-23.04,90.453,0l153.6,138.24c2.56,2.56,3.413,5.973,2.56,9.387c-2.56,3.413-5.973,5.973-9.387,5.973
		h-34.133v166.4c0,2.56-1.707,5.973-4.267,7.68l-48.64,29.867c-11.093,5.973-27.307,8.533-52.907,10.24L269.787,383.213z
		 M309.894,366.147h10.24c22.187-0.853,36.693-3.413,45.227-7.68l43.52-26.453V161.347c0-5.12,3.413-8.533,8.533-8.533h20.48
		L301.36,29.08c-18.773-17.067-47.787-17.067-67.413,0L97.414,152.813h21.333c5.12,0,8.533,3.413,8.533,8.533v119.467
		c13.653-0.853,24.747,2.56,34.133,9.387c13.653,10.24,30.72,15.36,48.64,15.36h33.28c24.747,0,47.787,11.947,61.44,31.573
		C311.6,349.08,314.16,358.467,309.894,366.147z"/>
	<path d="M221.147,178.413c-18.773,0-34.133-15.36-34.133-34.133s15.36-34.133,34.133-34.133s34.133,15.36,34.133,34.133
		S239.92,178.413,221.147,178.413z M221.147,127.213c-9.387,0-17.067,7.68-17.067,17.067c0,9.387,7.68,17.067,17.067,17.067
		s17.067-7.68,17.067-17.067C238.214,134.893,230.534,127.213,221.147,127.213z"/>
	<path d="M323.547,280.813c-18.773,0-34.133-15.36-34.133-34.133c0-18.773,15.36-34.133,34.133-34.133
		c18.773,0,34.133,15.36,34.133,34.133C357.68,265.453,342.32,280.813,323.547,280.813z M323.547,229.613
		c-9.387,0-17.067,7.68-17.067,17.067c0,9.387,7.68,17.067,17.067,17.067c9.387,0,17.067-7.68,17.067-17.067
		C340.614,237.293,332.934,229.613,323.547,229.613z"/>
	<path d="M195.547,280.813c-2.56,0-4.267-0.853-5.973-2.56c-3.413-3.413-3.413-8.533,0-11.947l153.6-153.6
		c3.413-3.413,8.533-3.413,11.947,0c3.413,3.413,3.413,8.533,0,11.947l-153.6,153.6C199.814,279.96,198.107,280.813,195.547,280.813
		z"/>
</g>
<g>
</g>
<g>
</g>
<g>
</g>
<g>
</g>
<g>
</g>
<g>
</g>
<g>
</g>
<g>
</g>
<g>
</g>
<g>
</g>
<g>
</g>
<g>
</g>
<g>
</g>
<g>
</g>
<g>
</g>
</svg>
